<svg width="24" height="24" viewBox="0 0 24 24" fill="none" xmlns="http://www.w3.org/2000/svg">
<path d="M11.9999 3.66602C10.9055 3.66602 9.82191 3.88156 8.81086 4.30035C7.79981 4.71914 6.88115 5.33297 6.10733 6.10679C4.54453 7.6696 3.66656 9.78921 3.66656 11.9993C3.65927 13.9236 4.32555 15.7898 5.54989 17.2743L3.88322 18.941C3.76759 19.0582 3.68926 19.207 3.65812 19.3687C3.62697 19.5303 3.64441 19.6976 3.70822 19.8493C3.77744 19.9993 3.88964 20.1253 4.03059 20.2113C4.17155 20.2974 4.33489 20.3396 4.49989 20.3327H11.9999C14.21 20.3327 16.3296 19.4547 17.8924 17.8919C19.4552 16.3291 20.3332 14.2095 20.3332 11.9993C20.3332 9.78921 19.4552 7.6696 17.8924 6.10679C16.3296 4.54399 14.21 3.66602 11.9999 3.66602ZM11.9999 18.666H6.50822L7.28322 17.891C7.43843 17.7349 7.52555 17.5237 7.52555 17.3035C7.52555 17.0834 7.43843 16.8722 7.28322 16.716C6.19204 15.626 5.51253 14.1915 5.36046 12.6567C5.20839 11.1219 5.59317 9.58185 6.44924 8.29895C7.30531 7.01605 8.57971 6.06965 10.0553 5.62099C11.5309 5.17234 13.1164 5.24919 14.5417 5.83844C15.967 6.4277 17.1439 7.49291 17.8719 8.85259C18.5999 10.2123 18.8339 11.7823 18.5342 13.2952C18.2344 14.8081 17.4193 16.1702 16.2278 17.1495C15.0364 18.1289 13.5422 18.6648 11.9999 18.666Z" fill="#155DFC"/>
</svg>
