<svg width="33" height="32" viewBox="0 0 33 32" fill="none" xmlns="http://www.w3.org/2000/svg">
<g filter="url(#filter0_dd_777_4677)">
<path d="M4.5 14C4.5 7.37258 9.87258 2 16.5 2V2C23.1274 2 28.5 7.37258 28.5 14V14C28.5 20.6274 23.1274 26 16.5 26V26C9.87258 26 4.5 20.6274 4.5 14V14Z" fill="#155DFC" shape-rendering="crispEdges"/>
<path d="M16.5 25.5C10.1487 25.5 5 20.3513 5 14C5 7.64873 10.1487 2.5 16.5 2.5C22.8513 2.5 28 7.64873 28 14C28 20.3513 22.8513 25.5 16.5 25.5Z" stroke="#EFF6FF" shape-rendering="crispEdges"/>
<path d="M19.1889 13.7947C19.4114 13.7975 19.6322 13.7556 19.8383 13.6717C20.0444 13.5877 20.2316 13.4633 20.3889 13.3058L21.9611 11.7336C22.0646 11.6295 22.1227 11.4887 22.1227 11.3419C22.1227 11.1952 22.0646 11.0544 21.9611 10.9503C21.9095 10.8982 21.848 10.8569 21.7803 10.8287C21.7126 10.8005 21.64 10.7859 21.5667 10.7859C21.4933 10.7859 21.4207 10.8005 21.353 10.8287C21.2853 10.8569 21.2239 10.8982 21.1722 10.9503L19.5833 12.5169C19.5317 12.569 19.4702 12.6103 19.4025 12.6385C19.3348 12.6668 19.2622 12.6813 19.1889 12.6813C19.1155 12.6813 19.0429 12.6668 18.9752 12.6385C18.9075 12.6103 18.8461 12.569 18.7944 12.5169L20.7611 10.5558C20.8129 10.504 20.854 10.4425 20.882 10.3749C20.9101 10.3072 20.9245 10.2346 20.9245 10.1614C20.9245 10.0881 20.9101 10.0156 20.882 9.94792C20.854 9.88024 20.8129 9.81874 20.7611 9.76694C20.7093 9.71514 20.6478 9.67405 20.5801 9.64602C20.5125 9.61799 20.4399 9.60356 20.3667 9.60356C20.2934 9.60356 20.2209 9.61799 20.1532 9.64602C20.0855 9.67405 20.024 9.71514 19.9722 9.76694L18.0111 11.7336C17.9076 11.6295 17.8496 11.4887 17.8496 11.3419C17.8496 11.1952 17.9076 11.0544 18.0111 10.9503L19.5833 9.37805C19.6351 9.32626 19.6762 9.26476 19.7042 9.19708C19.7323 9.1294 19.7467 9.05687 19.7467 8.98361C19.7467 8.91035 19.7323 8.83782 19.7042 8.77014C19.6762 8.70246 19.6351 8.64096 19.5833 8.58917C19.5315 8.53737 19.47 8.49628 19.4024 8.46824C19.3347 8.44021 19.2621 8.42578 19.1889 8.42578C19.1156 8.42578 19.0431 8.44021 18.9754 8.46824C18.9077 8.49628 18.8462 8.53737 18.7944 8.58917L17.2222 10.1614C16.9101 10.4739 16.7348 10.8975 16.7348 11.3392C16.7348 11.7808 16.9101 12.2044 17.2222 12.5169L16.5 13.2336L11.9055 8.6225L11.85 8.58917C11.8216 8.56439 11.7898 8.54381 11.7555 8.52805L11.6555 8.48917L11.5889 8.44472H11.55H11.4389C11.4058 8.43942 11.372 8.43942 11.3389 8.44472C11.3052 8.45696 11.2735 8.47379 11.2444 8.49472L11.1555 8.55028H11.1167L11.0833 8.60583C11.0598 8.63516 11.0393 8.66681 11.0222 8.70028C11.0059 8.73415 10.9929 8.7695 10.9833 8.80583C10.9833 8.80583 10.9833 8.84472 10.9833 8.86694C10.8485 9.80662 10.9345 10.7648 11.2344 11.6655C11.5343 12.5661 12.0399 13.3846 12.7111 14.0558L14.1778 15.5169L11.1722 18.5169C11.1201 18.5686 11.0788 18.63 11.0506 18.6977C11.0224 18.7654 11.0079 18.838 11.0079 18.9114C11.0079 18.9847 11.0224 19.0573 11.0506 19.125C11.0788 19.1927 11.1201 19.2542 11.1722 19.3058C11.2241 19.3573 11.2857 19.3981 11.3534 19.4257C11.4211 19.4534 11.4935 19.4674 11.5667 19.4669C11.6398 19.4674 11.7123 19.4534 11.7799 19.4257C11.8476 19.3981 11.9092 19.3573 11.9611 19.3058L15.3333 15.9836L16.9055 14.4114L18.0167 13.3003C18.3266 13.6136 18.7481 13.7914 19.1889 13.7947ZM14.9389 14.8058L13.4778 13.3392C12.6769 12.5274 12.1755 11.4676 12.0555 10.3336L15.7278 14.0003L14.9389 14.8058ZM18.4055 15.1225C18.3009 15.0171 18.1588 14.9577 18.0103 14.9572C17.8618 14.9566 17.7192 15.0151 17.6139 15.1197C17.5085 15.2243 17.4491 15.3665 17.4485 15.515C17.448 15.6634 17.5065 15.806 17.6111 15.9114L21.1111 19.4114C21.2172 19.5079 21.3566 19.5597 21.5 19.5558C21.5731 19.5563 21.6456 19.5422 21.7133 19.5146C21.781 19.4869 21.8425 19.4462 21.8944 19.3947C21.9465 19.3431 21.9878 19.2816 22.016 19.2139C22.0442 19.1462 22.0588 19.0736 22.0588 19.0003C22.0588 18.9269 22.0442 18.8543 22.016 18.7866C21.9878 18.7189 21.9465 18.6575 21.8944 18.6058L18.4055 15.1225Z" fill="white"/>
</g>
<defs>
<filter id="filter0_dd_777_4677" x="0.5" y="0" width="32" height="32" filterUnits="userSpaceOnUse" color-interpolation-filters="sRGB">
<feFlood flood-opacity="0" result="BackgroundImageFix"/>
<feColorMatrix in="SourceAlpha" type="matrix" values="0 0 0 0 0 0 0 0 0 0 0 0 0 0 0 0 0 0 127 0" result="hardAlpha"/>
<feOffset/>
<feGaussianBlur stdDeviation="1"/>
<feComposite in2="hardAlpha" operator="out"/>
<feColorMatrix type="matrix" values="0 0 0 0 0 0 0 0 0 0 0 0 0 0 0 0 0 0 0.08 0"/>
<feBlend mode="normal" in2="BackgroundImageFix" result="effect1_dropShadow_777_4677"/>
<feColorMatrix in="SourceAlpha" type="matrix" values="0 0 0 0 0 0 0 0 0 0 0 0 0 0 0 0 0 0 127 0" result="hardAlpha"/>
<feOffset dy="2"/>
<feGaussianBlur stdDeviation="2"/>
<feComposite in2="hardAlpha" operator="out"/>
<feColorMatrix type="matrix" values="0 0 0 0 0 0 0 0 0 0 0 0 0 0 0 0 0 0 0.12 0"/>
<feBlend mode="normal" in2="effect1_dropShadow_777_4677" result="effect2_dropShadow_777_4677"/>
<feBlend mode="normal" in="SourceGraphic" in2="effect2_dropShadow_777_4677" result="shape"/>
</filter>
</defs>
</svg>
